<?xml version="1.0" encoding="UTF-8" standalone="no"?>
<!DOCTYPE svg PUBLIC "-//W3C//DTD SVG 1.1//EN"
 "http://www.w3.org/Graphics/SVG/1.1/DTD/svg11.dtd">
<!-- Generated by graphviz version 2.38.0 (20140413.2041)
 -->
<!-- Title: IRMA_Dependencies Pages: 1 -->
<svg width="630pt" height="332pt"
 viewBox="0.00 0.00 629.73 332.00" xmlns="http://www.w3.org/2000/svg" xmlns:xlink="http://www.w3.org/1999/xlink">
<g id="graph0" class="graph" transform="scale(1 1) rotate(0) translate(4 328)">
<title>IRMA_Dependencies</title>
<polygon fill="white" stroke="none" points="-4,4 -4,-328 625.726,-328 625.726,4 -4,4"/>
<!-- scuba -->
<g id="node1" class="node"><title>scuba</title>
<ellipse fill="none" stroke="black" cx="376.019" cy="-306" rx="30.4862" ry="18"/>
<text text-anchor="middle" x="376.019" y="-301.8" font-family="Times,serif" font-size="14.00">scuba</text>
</g>
<!-- idemix_terminal -->
<g id="node2" class="node"><title>idemix_terminal</title>
<ellipse fill="none" stroke="black" cx="246.019" cy="-234" rx="68.6133" ry="18"/>
<text text-anchor="middle" x="246.019" y="-229.8" font-family="Times,serif" font-size="14.00">idemix_terminal</text>
</g>
<!-- scuba&#45;&gt;idemix_terminal -->
<g id="edge1" class="edge"><title>scuba&#45;&gt;idemix_terminal</title>
<path fill="none" stroke="black" d="M354.26,-293.284C335.074,-282.953 306.691,-267.669 283.802,-255.345"/>
<polygon fill="black" stroke="black" points="285.157,-252.099 274.693,-250.44 281.838,-258.262 285.157,-252.099"/>
</g>
<!-- credentials_api -->
<g id="node3" class="node"><title>credentials_api</title>
<ellipse fill="none" stroke="black" cx="396.019" cy="-234" rx="63.7682" ry="18"/>
<text text-anchor="middle" x="396.019" y="-229.8" font-family="Times,serif" font-size="14.00">credentials_api</text>
</g>
<!-- scuba&#45;&gt;credentials_api -->
<g id="edge2" class="edge"><title>scuba&#45;&gt;credentials_api</title>
<path fill="none" stroke="black" d="M380.86,-288.055C383.087,-280.261 385.784,-270.822 388.282,-262.079"/>
<polygon fill="black" stroke="black" points="391.701,-262.852 391.083,-252.275 384.971,-260.929 391.701,-262.852"/>
</g>
<!-- credentials_idemix -->
<g id="node5" class="node"><title>credentials_idemix</title>
<ellipse fill="none" stroke="black" cx="321.019" cy="-162" rx="77.283" ry="18"/>
<text text-anchor="middle" x="321.019" y="-157.8" font-family="Times,serif" font-size="14.00">credentials_idemix</text>
</g>
<!-- idemix_terminal&#45;&gt;credentials_idemix -->
<g id="edge4" class="edge"><title>idemix_terminal&#45;&gt;credentials_idemix</title>
<path fill="none" stroke="black" d="M263.793,-216.411C273.344,-207.497 285.281,-196.355 295.778,-186.558"/>
<polygon fill="black" stroke="black" points="298.19,-189.094 303.113,-179.713 293.414,-183.977 298.19,-189.094"/>
</g>
<!-- credentials_api&#45;&gt;credentials_idemix -->
<g id="edge5" class="edge"><title>credentials_api&#45;&gt;credentials_idemix</title>
<path fill="none" stroke="black" d="M378.245,-216.411C368.694,-207.497 356.757,-196.355 346.26,-186.558"/>
<polygon fill="black" stroke="black" points="348.624,-183.977 338.925,-179.713 343.848,-189.094 348.624,-183.977"/>
</g>
<!-- idemix_library -->
<g id="node4" class="node"><title>idemix_library</title>
<ellipse fill="none" stroke="black" cx="246.019" cy="-306" rx="62.8252" ry="18"/>
<text text-anchor="middle" x="246.019" y="-301.8" font-family="Times,serif" font-size="14.00">idemix_library</text>
</g>
<!-- idemix_library&#45;&gt;idemix_terminal -->
<g id="edge3" class="edge"><title>idemix_library&#45;&gt;idemix_terminal</title>
<path fill="none" stroke="black" d="M246.019,-287.697C246.019,-279.983 246.019,-270.712 246.019,-262.112"/>
<polygon fill="black" stroke="black" points="249.519,-262.104 246.019,-252.104 242.519,-262.104 249.519,-262.104"/>
</g>
<!-- irma_android_library -->
<g id="node6" class="node"><title>irma_android_library</title>
<ellipse fill="none" stroke="black" cx="321.019" cy="-90" rx="85.986" ry="18"/>
<text text-anchor="middle" x="321.019" y="-85.8" font-family="Times,serif" font-size="14.00">irma_android_library</text>
</g>
<!-- credentials_idemix&#45;&gt;irma_android_library -->
<g id="edge6" class="edge"><title>credentials_idemix&#45;&gt;irma_android_library</title>
<path fill="none" stroke="black" d="M321.019,-143.697C321.019,-135.983 321.019,-126.712 321.019,-118.112"/>
<polygon fill="black" stroke="black" points="324.519,-118.104 321.019,-108.104 317.519,-118.104 324.519,-118.104"/>
</g>
<!-- irma_android_cardproxy -->
<g id="node7" class="node"><title>irma_android_cardproxy</title>
<ellipse fill="none" stroke="black" cx="98.019" cy="-18" rx="98.038" ry="18"/>
<text text-anchor="middle" x="98.019" y="-13.8" font-family="Times,serif" font-size="14.00">irma_android_cardproxy</text>
</g>
<!-- irma_android_library&#45;&gt;irma_android_cardproxy -->
<g id="edge7" class="edge"><title>irma_android_library&#45;&gt;irma_android_cardproxy</title>
<path fill="none" stroke="black" d="M275.353,-74.6655C240.496,-63.7237 192.264,-48.5836 154.9,-36.8549"/>
<polygon fill="black" stroke="black" points="155.75,-33.4534 145.16,-33.7977 153.653,-40.1321 155.75,-33.4534"/>
</g>
<!-- irma_android_management -->
<g id="node8" class="node"><title>irma_android_management</title>
<ellipse fill="none" stroke="black" cx="321.019" cy="-18" rx="107.201" ry="18"/>
<text text-anchor="middle" x="321.019" y="-13.8" font-family="Times,serif" font-size="14.00">irma_android_management</text>
</g>
<!-- irma_android_library&#45;&gt;irma_android_management -->
<g id="edge8" class="edge"><title>irma_android_library&#45;&gt;irma_android_management</title>
<path fill="none" stroke="black" d="M321.019,-71.6966C321.019,-63.9827 321.019,-54.7125 321.019,-46.1124"/>
<polygon fill="black" stroke="black" points="324.519,-46.1043 321.019,-36.1043 317.519,-46.1044 324.519,-46.1043"/>
</g>
<!-- irma_android_verifier -->
<g id="node9" class="node"><title>irma_android_verifier</title>
<ellipse fill="none" stroke="black" cx="534.019" cy="-18" rx="87.9152" ry="18"/>
<text text-anchor="middle" x="534.019" y="-13.8" font-family="Times,serif" font-size="14.00">irma_android_verifier</text>
</g>
<!-- irma_android_library&#45;&gt;irma_android_verifier -->
<g id="edge9" class="edge"><title>irma_android_library&#45;&gt;irma_android_verifier</title>
<path fill="none" stroke="black" d="M365.153,-74.496C398.456,-63.5513 444.322,-48.478 479.849,-36.8025"/>
<polygon fill="black" stroke="black" points="481.169,-40.0529 489.576,-33.6057 478.983,-33.4028 481.169,-40.0529"/>
</g>
</g>
</svg>
