<?xml version="1.0" encoding="UTF-8" standalone="no"?>
<!DOCTYPE svg PUBLIC "-//W3C//DTD SVG 1.1//EN"
 "http://www.w3.org/Graphics/SVG/1.1/DTD/svg11.dtd">
<!-- Generated by graphviz version 2.38.0 (20140413.2041)
 -->
<!-- Title: irma_stack Pages: 1 -->
<svg width="257pt" height="427pt"
 viewBox="0.00 0.00 257.24 427.00" xmlns="http://www.w3.org/2000/svg" xmlns:xlink="http://www.w3.org/1999/xlink">
<g id="graph0" class="graph" transform="scale(1 1) rotate(0) translate(4 423)">
<title>irma_stack</title>
<polygon fill="white" stroke="none" points="-4,4 -4,-423 253.238,-423 253.238,4 -4,4"/>
<!-- emu -->
<g id="node1" class="node"><title>emu</title>
<ellipse fill="none" stroke="black" cx="68.6077" cy="-401" rx="68.7156" ry="18"/>
<text text-anchor="middle" x="68.6077" y="-398" font-family="sans-serif" font-size="10.00">irma_android_cardemu</text>
</g>
<!-- ial -->
<g id="node2" class="node"><title>ial</title>
<ellipse fill="none" stroke="black" cx="68.6077" cy="-319" rx="61.7292" ry="18"/>
<text text-anchor="middle" x="68.6077" y="-316" font-family="sans-serif" font-size="10.00">irma_android_library</text>
</g>
<!-- emu&#45;&gt;ial -->
<g id="edge1" class="edge"><title>emu&#45;&gt;ial</title>
<path fill="none" stroke="black" d="M68.6077,-382.641C68.6077,-372.297 68.6077,-358.941 68.6077,-347.221"/>
<polygon fill="black" stroke="black" points="72.1078,-347.05 68.6077,-337.05 65.1078,-347.05 72.1078,-347.05"/>
</g>
<!-- iac -->
<g id="node5" class="node"><title>iac</title>
<ellipse fill="none" stroke="black" cx="145.608" cy="-246" rx="56.957" ry="18"/>
<text text-anchor="middle" x="145.608" y="-243" font-family="sans-serif" font-size="10.00">irma_api_common</text>
</g>
<!-- ial&#45;&gt;iac -->
<g id="edge2" class="edge"><title>ial&#45;&gt;iac</title>
<path fill="none" stroke="black" d="M86.4666,-301.533C96.6459,-292.147 109.558,-280.24 120.719,-269.949"/>
<polygon fill="black" stroke="black" points="123.132,-272.485 128.111,-263.133 118.387,-267.339 123.132,-272.485"/>
</g>
<!-- ijs -->
<g id="node3" class="node"><title>ijs</title>
<polygon fill="none" stroke="black" points="225.608,-419 171.608,-419 171.608,-383 225.608,-383 225.608,-419"/>
<text text-anchor="middle" x="198.608" y="-398" font-family="sans-serif" font-size="10.00">irma_js</text>
</g>
<!-- ias -->
<g id="node4" class="node"><title>ias</title>
<ellipse fill="none" stroke="black" cx="198.608" cy="-319" rx="50.761" ry="18"/>
<text text-anchor="middle" x="198.608" y="-316" font-family="sans-serif" font-size="10.00">irma_api_server</text>
</g>
<!-- ijs&#45;&gt;ias -->
<g id="edge3" class="edge"><title>ijs&#45;&gt;ias</title>
<path fill="none" stroke="black" stroke-dasharray="5,2" d="M198.608,-382.641C198.608,-372.297 198.608,-358.941 198.608,-347.221"/>
<polygon fill="black" stroke="black" points="202.108,-347.05 198.608,-337.05 195.108,-347.05 202.108,-347.05"/>
<text text-anchor="middle" x="223.903" y="-357" font-family="sans-serif" font-size="10.00"> frontend to</text>
</g>
<!-- ias&#45;&gt;iac -->
<g id="edge4" class="edge"><title>ias&#45;&gt;iac</title>
<path fill="none" stroke="black" d="M186.315,-301.533C179.787,-292.788 171.627,-281.856 164.329,-272.08"/>
<polygon fill="black" stroke="black" points="166.988,-269.791 158.202,-263.871 161.379,-273.978 166.988,-269.791"/>
</g>
<!-- ci -->
<g id="node6" class="node"><title>ci</title>
<ellipse fill="none" stroke="black" cx="145.608" cy="-173" rx="57.1045" ry="18"/>
<text text-anchor="middle" x="145.608" y="-170" font-family="sans-serif" font-size="10.00">credentials_idemix</text>
</g>
<!-- iac&#45;&gt;ci -->
<g id="edge5" class="edge"><title>iac&#45;&gt;ci</title>
<path fill="none" stroke="black" d="M145.608,-227.813C145.608,-219.789 145.608,-210.047 145.608,-201.069"/>
<polygon fill="black" stroke="black" points="149.108,-201.029 145.608,-191.029 142.108,-201.029 149.108,-201.029"/>
</g>
<!-- ca -->
<g id="node7" class="node"><title>ca</title>
<ellipse fill="none" stroke="black" cx="145.608" cy="-100" rx="48.147" ry="18"/>
<text text-anchor="middle" x="145.608" y="-97" font-family="sans-serif" font-size="10.00">credentials_api</text>
</g>
<!-- ci&#45;&gt;ca -->
<g id="edge6" class="edge"><title>ci&#45;&gt;ca</title>
<path fill="none" stroke="black" d="M145.608,-154.813C145.608,-146.789 145.608,-137.047 145.608,-128.069"/>
<polygon fill="black" stroke="black" points="149.108,-128.029 145.608,-118.029 142.108,-128.029 149.108,-128.029"/>
</g>
<!-- conf -->
<g id="node8" class="node"><title>conf</title>
<polygon fill="none" stroke="black" points="194.874,-36 96.3417,-36 96.3417,-0 194.874,-0 194.874,-36"/>
<text text-anchor="middle" x="145.608" y="-15" font-family="sans-serif" font-size="10.00">irma_configuration</text>
</g>
<!-- ci&#45;&gt;conf -->
<g id="edge8" class="edge"><title>ci&#45;&gt;conf</title>
<path fill="none" stroke="black" stroke-dasharray="5,2" d="M169.525,-156.573C181.907,-147.106 195.821,-133.778 202.608,-118 208.93,-103.302 207.491,-97.2367 202.608,-82 197.817,-67.0496 187.156,-53.6406 176.335,-43.0756"/>
<polygon fill="black" stroke="black" points="178.62,-40.4214 168.888,-36.2317 173.883,-45.5754 178.62,-40.4214"/>
<text text-anchor="middle" x="224.004" y="-97" font-family="sans-serif" font-size="10.00"> parses</text>
</g>
<!-- ca&#45;&gt;conf -->
<g id="edge7" class="edge"><title>ca&#45;&gt;conf</title>
<path fill="none" stroke="black" stroke-dasharray="5,2" d="M145.608,-81.6412C145.608,-71.2971 145.608,-57.941 145.608,-46.2206"/>
<polygon fill="black" stroke="black" points="149.108,-46.0501 145.608,-36.0501 142.108,-46.0501 149.108,-46.0501"/>
<text text-anchor="middle" x="162.004" y="-56" font-family="sans-serif" font-size="10.00"> parses</text>
</g>
</g>
</svg>
