<?xml version="1.0" encoding="UTF-8" standalone="no"?>
<!DOCTYPE svg PUBLIC "-//W3C//DTD SVG 1.1//EN"
 "http://www.w3.org/Graphics/SVG/1.1/DTD/svg11.dtd">
<!-- Generated by graphviz version 2.38.0 (20140413.2041)
 -->
<!-- Title: irma_stack Pages: 1 -->
<svg width="264pt" height="427pt"
 viewBox="0.00 0.00 264.24 427.00" xmlns="http://www.w3.org/2000/svg" xmlns:xlink="http://www.w3.org/1999/xlink">
<g id="graph0" class="graph" transform="scale(1 1) rotate(0) translate(4 423)">
<title>irma_stack</title>
<!-- ijs -->
<g id="node1" class="node"><title>ijs</title>
<polygon fill="none" stroke="black" points="77.6303,-419 23.6303,-419 23.6303,-383 77.6303,-383 77.6303,-419"/>
<text text-anchor="middle" x="50.6303" y="-398" font-family="sans-serif" font-size="10.00">irma_js</text>
</g>
<!-- ias -->
<g id="node2" class="node"><title>ias</title>
<ellipse fill="none" stroke="black" cx="50.6303" cy="-319" rx="50.761" ry="18"/>
<text text-anchor="middle" x="50.6303" y="-316" font-family="sans-serif" font-size="10.00">irma_api_server</text>
</g>
<!-- ijs&#45;&gt;ias -->
<g id="edge2" class="edge"><title>ijs&#45;&gt;ias</title>
<path fill="none" stroke="black" stroke-dasharray="5,2" d="M50.6303,-382.641C50.6303,-372.297 50.6303,-358.941 50.6303,-347.221"/>
<polygon fill="black" stroke="black" points="54.1304,-347.05 50.6303,-337.05 47.1304,-347.05 54.1304,-347.05"/>
<text text-anchor="middle" x="75.9258" y="-357" font-family="sans-serif" font-size="10.00"> frontend to</text>
</g>
<!-- iac -->
<g id="node4" class="node"><title>iac</title>
<ellipse fill="none" stroke="black" cx="146.63" cy="-246" rx="56.957" ry="18"/>
<text text-anchor="middle" x="146.63" y="-243" font-family="sans-serif" font-size="10.00">irma_api_common</text>
</g>
<!-- ias&#45;&gt;iac -->
<g id="edge3" class="edge"><title>ias&#45;&gt;iac</title>
<path fill="none" stroke="black" d="M71.9359,-302.243C85.2347,-292.407 102.542,-279.607 117.148,-268.805"/>
<polygon fill="black" stroke="black" points="119.426,-271.473 125.384,-262.713 115.263,-265.845 119.426,-271.473"/>
</g>
<!-- emu -->
<g id="node3" class="node"><title>emu</title>
<ellipse fill="none" stroke="black" cx="187.63" cy="-319" rx="68.7156" ry="18"/>
<text text-anchor="middle" x="187.63" y="-316" font-family="sans-serif" font-size="10.00">irma_android_cardemu</text>
</g>
<!-- emu&#45;&gt;iac -->
<g id="edge1" class="edge"><title>emu&#45;&gt;iac</title>
<path fill="none" stroke="black" d="M177.914,-301.174C173.083,-292.809 167.136,-282.509 161.728,-273.145"/>
<polygon fill="black" stroke="black" points="164.594,-271.108 156.562,-264.198 158.532,-274.609 164.594,-271.108"/>
</g>
<!-- ci -->
<g id="node5" class="node"><title>ci</title>
<ellipse fill="none" stroke="black" cx="146.63" cy="-173" rx="57.1045" ry="18"/>
<text text-anchor="middle" x="146.63" y="-170" font-family="sans-serif" font-size="10.00">credentials_idemix</text>
</g>
<!-- iac&#45;&gt;ci -->
<g id="edge4" class="edge"><title>iac&#45;&gt;ci</title>
<path fill="none" stroke="black" d="M146.63,-227.813C146.63,-219.789 146.63,-210.047 146.63,-201.069"/>
<polygon fill="black" stroke="black" points="150.13,-201.029 146.63,-191.029 143.13,-201.029 150.13,-201.029"/>
</g>
<!-- ca -->
<g id="node6" class="node"><title>ca</title>
<ellipse fill="none" stroke="black" cx="146.63" cy="-100" rx="48.147" ry="18"/>
<text text-anchor="middle" x="146.63" y="-97" font-family="sans-serif" font-size="10.00">credentials_api</text>
</g>
<!-- ci&#45;&gt;ca -->
<g id="edge5" class="edge"><title>ci&#45;&gt;ca</title>
<path fill="none" stroke="black" d="M146.63,-154.813C146.63,-146.789 146.63,-137.047 146.63,-128.069"/>
<polygon fill="black" stroke="black" points="150.13,-128.029 146.63,-118.029 143.13,-128.029 150.13,-128.029"/>
</g>
<!-- conf -->
<g id="node7" class="node"><title>conf</title>
<polygon fill="none" stroke="black" points="195.896,-36 97.3644,-36 97.3644,-0 195.896,-0 195.896,-36"/>
<text text-anchor="middle" x="146.63" y="-15" font-family="sans-serif" font-size="10.00">irma_configuration</text>
</g>
<!-- ci&#45;&gt;conf -->
<g id="edge7" class="edge"><title>ci&#45;&gt;conf</title>
<path fill="none" stroke="black" stroke-dasharray="5,2" d="M170.548,-156.573C182.93,-147.106 196.844,-133.778 203.63,-118 209.952,-103.302 208.513,-97.2367 203.63,-82 198.839,-67.0496 188.179,-53.6406 177.358,-43.0756"/>
<polygon fill="black" stroke="black" points="179.642,-40.4214 169.911,-36.2317 174.906,-45.5754 179.642,-40.4214"/>
<text text-anchor="middle" x="225.027" y="-97" font-family="sans-serif" font-size="10.00"> parses</text>
</g>
<!-- ca&#45;&gt;conf -->
<g id="edge6" class="edge"><title>ca&#45;&gt;conf</title>
<path fill="none" stroke="black" stroke-dasharray="5,2" d="M146.63,-81.6412C146.63,-71.2971 146.63,-57.941 146.63,-46.2206"/>
<polygon fill="black" stroke="black" points="150.13,-46.0501 146.63,-36.0501 143.13,-46.0501 150.13,-46.0501"/>
<text text-anchor="middle" x="163.027" y="-56" font-family="sans-serif" font-size="10.00"> parses</text>
</g>
</g>
</svg>
